<mxfile host="Electron" modified="2023-09-13T00:20:03.415Z" agent="Mozilla/5.0 (Windows NT 10.0; Win64; x64) AppleWebKit/537.36 (KHTML, like Gecko) draw.io/21.5.1 Chrome/112.0.5615.204 Electron/24.6.0 Safari/537.36" etag="lmKDpDOQF6ygvj4q1EFK" version="21.5.1" type="device">
  <diagram name="Page-1" id="YyDBLM6snM2IbDflyFHC">
    <mxGraphModel dx="619" dy="318" grid="1" gridSize="10" guides="1" tooltips="1" connect="1" arrows="1" fold="1" page="1" pageScale="1" pageWidth="827" pageHeight="1169" math="0" shadow="0">
      <root>
        <mxCell id="0" />
        <mxCell id="1" parent="0" />
        <mxCell id="db-0JxLyZhfuzwdPeHGm-1" value="" style="triangle;whiteSpace=wrap;html=1;rotation=-90;" vertex="1" parent="1">
          <mxGeometry x="260" y="160" width="250" height="250" as="geometry" />
        </mxCell>
        <mxCell id="db-0JxLyZhfuzwdPeHGm-2" value="at" style="text;html=1;align=center;verticalAlign=middle;resizable=0;points=[];autosize=1;strokeColor=none;fillColor=none;fontSize=30;" vertex="1" parent="1">
          <mxGeometry x="360" y="200" width="50" height="50" as="geometry" />
        </mxCell>
        <mxCell id="db-0JxLyZhfuzwdPeHGm-3" value="on" style="text;html=1;align=center;verticalAlign=middle;resizable=0;points=[];autosize=1;strokeColor=none;fillColor=none;fontSize=30;" vertex="1" parent="1">
          <mxGeometry x="355" y="280" width="60" height="50" as="geometry" />
        </mxCell>
        <mxCell id="db-0JxLyZhfuzwdPeHGm-4" value="in" style="text;html=1;align=center;verticalAlign=middle;resizable=0;points=[];autosize=1;strokeColor=none;fillColor=none;fontSize=30;" vertex="1" parent="1">
          <mxGeometry x="360" y="350" width="50" height="50" as="geometry" />
        </mxCell>
        <mxCell id="db-0JxLyZhfuzwdPeHGm-5" value="" style="endArrow=none;html=1;rounded=0;entryX=0.24;entryY=0.88;entryDx=0;entryDy=0;entryPerimeter=0;" edge="1" parent="1" target="db-0JxLyZhfuzwdPeHGm-1">
          <mxGeometry width="50" height="50" relative="1" as="geometry">
            <mxPoint x="290" y="350" as="sourcePoint" />
            <mxPoint x="340" y="300" as="targetPoint" />
          </mxGeometry>
        </mxCell>
        <mxCell id="db-0JxLyZhfuzwdPeHGm-10" value="" style="endArrow=none;html=1;rounded=0;entryX=0.601;entryY=0.698;entryDx=0;entryDy=0;entryPerimeter=0;exitX=0.599;exitY=0.296;exitDx=0;exitDy=0;exitPerimeter=0;" edge="1" parent="1" target="db-0JxLyZhfuzwdPeHGm-1">
          <mxGeometry width="50" height="50" relative="1" as="geometry">
            <mxPoint x="334.9999999999999" y="260.25000000000006" as="sourcePoint" />
            <mxPoint x="436" y="260.25000000000006" as="targetPoint" />
          </mxGeometry>
        </mxCell>
      </root>
    </mxGraphModel>
  </diagram>
</mxfile>
